<svg width="76" height="17" viewBox="0 0 76 17" fill="none" xmlns="http://www.w3.org/2000/svg">
<path d="M2.73752 2.4C0.967523 2.79 -0.332476 1.16 1.34752 0C3.50752 0.66 9.02752 -0.589998 10.6175 0.650002C12.4675 2.1 11.5375 4.33001 10.2275 5.78001C13.6775 10.42 11.4275 16.56 5.35752 16.91C-0.202482 17.23 -2.11248 9.68 2.90752 7.3L2.73752 2.41V2.4ZM9.36752 2.4H4.49752V6.52C4.49752 6.64 4.10752 7.05001 4.24752 7.39001C6.95752 7.33001 8.20752 12.37 5.68752 13.45C4.24752 14.07 3.54752 13.17 4.03752 11.8C4.17752 11.42 6.41752 10.98 4.73752 9.78001C2.49752 8.18001 -0.19248 13.04 3.68752 14.34C7.21752 15.53 10.9175 12.67 9.94752 8.82999C9.22752 5.96999 4.41752 7.74001 5.48752 4.75001C6.72752 3.59001 9.08752 4.89 9.76752 3.02L9.37752 2.39L9.36752 2.4Z" fill="#AA0503"/>
<path d="M15.7376 2.90007C15.3976 4.79007 15.9276 13.5501 14.8876 14.4301C14.7876 14.5101 14.6976 14.5901 14.5676 14.6301C12.7176 15.0901 13.7276 10.6701 13.7476 9.79007C13.8176 6.87007 13.6976 3.98008 14.0176 1.06008L14.2176 0.760073C17.7976 0.550073 23.8076 -0.27992 22.6776 5.22008C22.4076 6.54008 21.2776 7.25008 20.0876 7.64008C19.8476 7.97008 21.3076 10.4201 21.6276 10.8801C22.2576 11.7901 22.9776 12.8401 24.1676 13.0901C28.4676 13.9901 27.4076 8.84007 25.1276 9.41007C24.4676 9.58007 25.5776 11.5301 24.1076 11.6601C22.2476 10.9901 23.0776 7.94008 24.5476 7.34008C29.0876 5.49008 31.0876 15.4701 25.0876 15.6301C21.4676 15.7301 20.2476 11.5901 18.6976 9.32007C18.0376 8.36007 16.3276 7.45007 16.7676 6.07007C17.1676 4.83007 20.6276 6.01007 21.1376 4.41007C21.7476 2.49007 16.9376 3.32007 15.7376 2.90007Z" fill="#AA0503"/>
<path d="M61.4873 14.0201C61.3773 14.7001 60.4573 15.0901 59.9873 14.5301C59.4773 13.9301 59.7973 10.3601 59.7473 9.26007C59.6573 7.31007 59.1773 4.66007 59.2273 2.78007C59.2373 2.32007 59.6373 0.980072 60.1073 0.940072C61.2273 0.850072 61.4473 3.52007 61.7973 4.46007C62.6573 6.80007 64.3473 8.95008 65.8673 10.8901C66.5273 10.9401 66.1073 10.7801 66.0573 10.4501C65.7173 8.18007 65.3473 1.66007 67.9873 0.520074C71.3073 -0.909926 71.2373 6.26008 67.7373 4.14008C67.3873 6.56008 67.3173 9.08007 68.0573 11.4501C68.3773 12.4701 69.9373 14.2601 68.4873 15.0301C67.4573 15.5801 64.3173 12.2101 63.6173 11.3901C62.8673 10.5201 62.3473 9.41008 61.4973 8.64008C61.3073 10.2801 61.7573 12.4601 61.4973 14.0201H61.4873Z" fill="#AA0503"/>
<path d="M43.4776 5.64998C43.6076 4.12998 48.2977 -1.08002 49.1877 1.82998C49.6677 3.39998 47.9377 3.39997 46.9977 4.04997C43.7577 6.27997 42.8977 15.06 39.0477 15.85C33.7077 16.95 32.8476 7.58998 37.8676 8.13998C40.0276 8.37998 40.2776 11.99 39.0676 12.38C37.3776 12.92 38.3776 10.4 37.5976 10.16C36.3576 9.78997 35.8476 12.64 37.2576 13.51C39.8676 15.12 41.4876 9.55998 42.4476 7.98997C42.4676 7.81997 40.8876 5.94997 40.6176 5.65997C39.4276 4.39997 35.8177 2.30998 38.1077 0.72998L43.4776 5.66998V5.64998Z" fill="#AA0503"/>
<path d="M56.5076 14.88C56.3676 14.78 55.5376 12.45 55.0376 11.72C54.3476 10.71 53.4676 9.50999 52.1576 9.43999L51.4776 10.28C52.1676 11.21 52.7476 9.49999 53.4976 10.52C54.4076 11.69 52.5376 14.26 50.5976 12.42C49.6576 11.52 49.6476 10.06 49.9776 8.92L46.7276 14.56C44.8676 15.37 45.3276 13.52 45.7876 12.35C46.7876 9.87999 49.4876 5.47999 50.9276 2.98999C52.0576 1.02999 52.4976 -0.260007 53.7676 2.48999C54.6176 4.32999 57.5676 11.27 57.8576 12.9C57.9876 13.65 58.1976 14.55 57.2976 14.86C57.0976 14.93 56.6476 14.99 56.4976 14.88H56.5076ZM52.7276 4.4C52.1476 4.28 52.3276 4.48 52.1676 4.72C51.9476 5.07 50.5976 7.48 50.7276 7.65C51.7376 6.96 52.7176 6.97 53.7176 7.65L52.7176 4.4H52.7276Z" fill="#AA0503"/>
<path d="M31.8977 14.06C31.6077 14.34 31.1177 14.51 30.8577 14.89L30.2377 14.01C29.7577 10.95 30.5177 6.08996 29.9777 3.26996C29.8477 2.60996 28.7377 1.85996 28.9877 0.889962C29.6377 0.999962 31.4577 0.549966 31.6977 1.29997L31.7277 9.51996C31.7977 10.15 32.4977 10.16 32.8477 10.66C33.6177 11.78 32.7377 13.25 31.8977 14.06Z" fill="#AA0503"/>
<path d="M75.0475 10.0901C75.1175 10.2101 75.5375 10.2301 75.7675 10.7401C76.5375 12.4601 75.1475 14.7901 73.2375 14.9001V3.02005C73.2075 2.42005 72.5075 2.61005 72.4575 2.03005C72.3075 0.310052 74.6675 0.660055 74.9375 1.58006C75.3975 3.15006 74.5475 9.26005 75.0475 10.1001V10.0901Z" fill="#AA0503"/>
</svg>
