<svg width="70" height="31" viewBox="0 0 70 31" fill="none" xmlns="http://www.w3.org/2000/svg">
<path d="M10.3526 3.39763C10.4026 3.23763 10.7326 2.99763 10.9526 3.03763L28.6026 3.27763L26.4726 4.76763L25.5726 6.74763L21.0826 6.88763L20.8526 9.02763H27.6026C24.4626 12.3076 28.0726 16.7876 23.5326 19.3276C20.4026 21.0776 12.7226 20.2076 8.75258 20.7976C6.72258 21.0976 4.15258 22.6176 3.70258 24.7676C3.49258 25.7976 4.16258 26.3176 4.08258 26.6276C3.99258 27.0176 2.36259 27.6176 2.10259 28.1576L0.602585 30.7776C-0.397415 28.0076 -0.147416 24.9476 1.31258 22.3676C3.59258 18.3176 7.71258 17.7876 11.9726 17.5276C15.1026 17.3276 21.4326 18.5176 22.0526 14.0976C22.3726 11.7876 19.4326 12.3376 20.1026 14.7876H17.1026V8.15763C16.7026 7.55763 14.2126 7.64763 13.9626 8.01763L13.8526 15.0376C12.5726 14.9176 11.4526 15.1276 10.3526 15.7876V3.40763V3.39763Z" fill="white"/>
<path d="M47.1025 19.5275C48.8825 18.0675 49.7425 15.6775 49.8025 13.3975C49.8525 11.6675 49.0325 9.36752 50.2325 7.77752H54.6025C54.6225 8.18752 54.1325 7.98751 53.9025 8.44751C52.9525 10.3175 54.5825 13.9775 53.8525 16.0275L57.8525 15.7775C56.9025 12.1175 58.6125 7.23751 62.3625 5.90751C69.1725 3.49751 71.2625 12.3775 68.3125 17.1075C67.9725 17.6475 66.2625 19.5275 65.7325 19.5275H47.1125H47.1025ZM61.9225 15.4475C64.9725 18.1475 68.4025 11.0875 65.0325 9.71752C61.6625 8.34752 59.8825 13.6475 61.9225 15.4475Z" fill="white"/>
<path d="M27.6025 19.5277C30.4225 17.0177 29.2425 13.7677 29.6025 10.6477C29.8625 8.34769 31.9825 9.4677 33.6025 9.5277C32.3425 11.5577 33.6625 14.3577 33.1025 16.5277L36.5825 16.2577C35.9625 13.1277 37.0525 9.3277 40.1825 7.9777C46.4825 5.2577 48.4425 14.3877 44.8525 18.3977C44.6925 18.5777 43.5625 19.5277 43.4825 19.5277H27.6125H27.6025ZM43.2825 11.3477C41.3725 9.44771 37.9025 12.8977 39.7425 15.5177C41.9725 18.7077 45.4525 13.4977 43.2825 11.3477Z" fill="white"/>
<path d="M38.0928 0.0276159L38.8828 1.98761L40.9728 1.52762L40.8428 2.14762L41.3428 2.02762L40.8428 3.40761L41.2928 3.55761L41.1328 4.23762L41.5928 4.39762C41.3828 5.02762 40.2728 5.19761 40.1428 5.33761C39.8328 5.70761 40.6228 6.31762 39.0928 5.77762L38.9628 7.02762L37.6828 6.05761L36.3428 6.78762V6.02762L35.8428 6.28762C36.3628 5.24762 34.7528 4.94761 34.3428 3.90761L35.5828 3.40761C34.7128 2.74761 35.2428 1.91762 35.3428 1.03762L36.8428 2.28762C36.8628 1.63762 37.2428 0.937619 37.5728 0.397619C37.7028 0.177619 37.4428 -0.102382 38.0928 0.037618V0.0276159Z" fill="white"/>
</svg>
